<svg xmlns="http://www.w3.org/2000/svg" viewBox="0 0 900 520" font-family="Inter, -apple-system, BlinkMacSystemFont, 'Segoe UI', Helvetica, Arial, sans-serif">
  <defs>
    <filter id="shadow" x="-4%" y="-4%" width="108%" height="112%">
      <feDropShadow dx="0" dy="2" stdDeviation="3" flood-opacity="0.1"/>
    </filter>
    <linearGradient id="headerGrad" x1="0" y1="0" x2="1" y2="0">
      <stop offset="0%" stop-color="#6366f1"/>
      <stop offset="100%" stop-color="#8b5cf6"/>
    </linearGradient>
    <linearGradient id="scrapeGrad" x1="0" y1="0" x2="0" y2="1">
      <stop offset="0%" stop-color="#f0fdf4"/>
      <stop offset="100%" stop-color="#dcfce7"/>
    </linearGradient>
    <linearGradient id="scoreGrad" x1="0" y1="0" x2="0" y2="1">
      <stop offset="0%" stop-color="#eff6ff"/>
      <stop offset="100%" stop-color="#dbeafe"/>
    </linearGradient>
    <linearGradient id="genGrad" x1="0" y1="0" x2="0" y2="1">
      <stop offset="0%" stop-color="#fefce8"/>
      <stop offset="100%" stop-color="#fef9c3"/>
    </linearGradient>
    <linearGradient id="deliverGrad" x1="0" y1="0" x2="0" y2="1">
      <stop offset="0%" stop-color="#fdf2f8"/>
      <stop offset="100%" stop-color="#fce7f3"/>
    </linearGradient>
  </defs>

  <!-- Background -->
  <rect width="900" height="520" rx="12" fill="#fafafa"/>

  <!-- Title -->
  <rect x="0" y="0" width="900" height="52" rx="12" fill="url(#headerGrad)"/>
  <rect x="0" y="24" width="900" height="28" fill="url(#headerGrad)"/>
  <text x="450" y="34" text-anchor="middle" fill="white" font-size="18" font-weight="700">ApplAI Architecture</text>

  <!-- n8n Orchestrator box -->
  <rect x="30" y="72" width="840" height="430" rx="10" fill="none" stroke="#e2e8f0" stroke-width="1.5" stroke-dasharray="8 4"/>
  <text x="50" y="94" fill="#94a3b8" font-size="12" font-weight="600">n8n Orchestrator (12h cron)</text>

  <!-- Scrape -->
  <rect x="55" y="115" width="180" height="160" rx="8" fill="url(#scrapeGrad)" stroke="#86efac" stroke-width="1.5" filter="url(#shadow)"/>
  <text x="145" y="140" text-anchor="middle" fill="#166534" font-size="14" font-weight="700">Scrape</text>
  <line x1="85" y1="150" x2="205" y2="150" stroke="#bbf7d0" stroke-width="1"/>
  <text x="145" y="172" text-anchor="middle" fill="#15803d" font-size="11">Arbeitnow</text>
  <text x="145" y="190" text-anchor="middle" fill="#15803d" font-size="11">Remotive</text>
  <text x="145" y="216" text-anchor="middle" fill="#6b7280" font-size="10">JD Sanitizer</text>
  <text x="145" y="232" text-anchor="middle" fill="#6b7280" font-size="10">(5-stage pipeline)</text>
  <text x="145" y="260" text-anchor="middle" fill="#6b7280" font-size="10">SQLite</text>

  <!-- Arrow 1 -->
  <line x1="235" y1="195" x2="275" y2="195" stroke="#94a3b8" stroke-width="2" marker-end="url(#arrowhead)"/>
  <defs><marker id="arrowhead" markerWidth="8" markerHeight="6" refX="8" refY="3" orient="auto"><polygon points="0 0, 8 3, 0 6" fill="#94a3b8"/></marker></defs>

  <!-- Score -->
  <rect x="280" y="115" width="180" height="160" rx="8" fill="url(#scoreGrad)" stroke="#93c5fd" stroke-width="1.5" filter="url(#shadow)"/>
  <text x="370" y="140" text-anchor="middle" fill="#1e40af" font-size="14" font-weight="700">Score</text>
  <line x1="310" y1="150" x2="430" y2="150" stroke="#bfdbfe" stroke-width="1"/>
  <text x="370" y="172" text-anchor="middle" fill="#1d4ed8" font-size="11">Gemini 2.5 Flash</text>
  <text x="370" y="190" text-anchor="middle" fill="#6b7280" font-size="10">or</text>
  <text x="370" y="206" text-anchor="middle" fill="#1d4ed8" font-size="11">Groq (Llama 3.3 70B)</text>
  <text x="370" y="232" text-anchor="middle" fill="#6b7280" font-size="10">AI keyword pre-filter</text>
  <text x="370" y="248" text-anchor="middle" fill="#6b7280" font-size="10">Score 0-10, threshold 6.0</text>

  <!-- Arrow 2 -->
  <line x1="460" y1="195" x2="500" y2="195" stroke="#94a3b8" stroke-width="2" marker-end="url(#arrowhead)"/>

  <!-- Generate -->
  <rect x="505" y="115" width="180" height="160" rx="8" fill="url(#genGrad)" stroke="#fde047" stroke-width="1.5" filter="url(#shadow)"/>
  <text x="595" y="140" text-anchor="middle" fill="#854d0e" font-size="14" font-weight="700">Generate</text>
  <line x1="535" y1="150" x2="655" y2="150" stroke="#fef08a" stroke-width="1"/>
  <text x="595" y="172" text-anchor="middle" fill="#a16207" font-size="11">Anthropic API</text>
  <text x="595" y="190" text-anchor="middle" fill="#a16207" font-size="11">(Claude Sonnet)</text>
  <text x="595" y="216" text-anchor="middle" fill="#6b7280" font-size="10">CV: LaTeX → PDF</text>
  <text x="595" y="232" text-anchor="middle" fill="#6b7280" font-size="10">Cover Letter: LaTeX → PDF</text>
  <text x="595" y="256" text-anchor="middle" fill="#6b7280" font-size="10">LaTeX safety check</text>

  <!-- Arrow 3 -->
  <line x1="685" y1="195" x2="725" y2="195" stroke="#94a3b8" stroke-width="2" marker-end="url(#arrowhead)"/>

  <!-- Deliver -->
  <rect x="730" y="115" width="120" height="160" rx="8" fill="url(#deliverGrad)" stroke="#f9a8d4" stroke-width="1.5" filter="url(#shadow)"/>
  <text x="790" y="140" text-anchor="middle" fill="#9d174d" font-size="14" font-weight="700">Deliver</text>
  <line x1="750" y1="150" x2="830" y2="150" stroke="#fbcfe8" stroke-width="1"/>
  <text x="790" y="172" text-anchor="middle" fill="#be185d" font-size="11">Discord</text>
  <text x="790" y="190" text-anchor="middle" fill="#be185d" font-size="11">Notion</text>

  <!-- External Services row -->
  <!-- Discord -->
  <rect x="55" y="330" width="200" height="100" rx="8" fill="white" stroke="#818cf8" stroke-width="1.5" filter="url(#shadow)"/>
  <text x="155" y="358" text-anchor="middle" fill="#4338ca" font-size="13" font-weight="700">Discord</text>
  <line x1="85" y1="366" x2="225" y2="366" stroke="#e0e7ff" stroke-width="1"/>
  <text x="155" y="386" text-anchor="middle" fill="#6b7280" font-size="10">Approve / Reject / Rescue</text>
  <text x="155" y="402" text-anchor="middle" fill="#6b7280" font-size="10">Skipped jobs digest</text>
  <text x="155" y="418" text-anchor="middle" fill="#6b7280" font-size="10">Ed25519 webhook verification</text>

  <!-- Notion -->
  <rect x="280" y="330" width="200" height="100" rx="8" fill="white" stroke="#818cf8" stroke-width="1.5" filter="url(#shadow)"/>
  <text x="380" y="358" text-anchor="middle" fill="#4338ca" font-size="13" font-weight="700">Notion</text>
  <line x1="310" y1="366" x2="450" y2="366" stroke="#e0e7ff" stroke-width="1"/>
  <text x="380" y="386" text-anchor="middle" fill="#6b7280" font-size="10">Job tracker dashboard</text>
  <text x="380" y="402" text-anchor="middle" fill="#6b7280" font-size="10">Status: Ready → Queued → Applied</text>
  <text x="380" y="418" text-anchor="middle" fill="#6b7280" font-size="10">Score, country, documents</text>

  <!-- FastAPI -->
  <rect x="505" y="330" width="200" height="100" rx="8" fill="white" stroke="#818cf8" stroke-width="1.5" filter="url(#shadow)"/>
  <text x="605" y="358" text-anchor="middle" fill="#4338ca" font-size="13" font-weight="700">FastAPI</text>
  <line x1="535" y1="366" x2="675" y2="366" stroke="#e0e7ff" stroke-width="1"/>
  <text x="605" y="386" text-anchor="middle" fill="#6b7280" font-size="10">REST endpoints per phase</text>
  <text x="605" y="402" text-anchor="middle" fill="#6b7280" font-size="10">Discord interactions webhook</text>
  <text x="605" y="418" text-anchor="middle" fill="#6b7280" font-size="10">Health + stats monitoring</text>

  <!-- SQLite -->
  <rect x="730" y="330" width="120" height="100" rx="8" fill="white" stroke="#818cf8" stroke-width="1.5" filter="url(#shadow)"/>
  <text x="790" y="358" text-anchor="middle" fill="#4338ca" font-size="13" font-weight="700">SQLite</text>
  <line x1="750" y1="366" x2="830" y2="366" stroke="#e0e7ff" stroke-width="1"/>
  <text x="790" y="386" text-anchor="middle" fill="#6b7280" font-size="10">Jobs + scores</text>
  <text x="790" y="402" text-anchor="middle" fill="#6b7280" font-size="10">Applications</text>
  <text x="790" y="418" text-anchor="middle" fill="#6b7280" font-size="10">Feedback events</text>

  <!-- Connecting lines from top row to bottom row -->
  <line x1="790" y1="275" x2="155" y2="330" stroke="#c7d2fe" stroke-width="1" stroke-dasharray="4 3"/>
  <line x1="790" y1="275" x2="380" y2="330" stroke="#c7d2fe" stroke-width="1" stroke-dasharray="4 3"/>
  <line x1="145" y1="275" x2="790" y2="330" stroke="#c7d2fe" stroke-width="1" stroke-dasharray="4 3"/>
  <line x1="605" y1="275" x2="605" y2="330" stroke="#c7d2fe" stroke-width="1" stroke-dasharray="4 3"/>

  <!-- You (human) -->
  <rect x="55" y="460" width="200" height="30" rx="6" fill="#6366f1"/>
  <text x="155" y="480" text-anchor="middle" fill="white" font-size="12" font-weight="600">You review + submit manually</text>
  <line x1="155" y1="430" x2="155" y2="460" stroke="#6366f1" stroke-width="1.5" marker-end="url(#arrowhead2)"/>
  <defs><marker id="arrowhead2" markerWidth="8" markerHeight="6" refX="8" refY="3" orient="auto"><polygon points="0 0, 8 3, 0 6" fill="#6366f1"/></marker></defs>
</svg>
